<svg width="355" height="112" viewBox="0 0 355 112" fill="none" xmlns="http://www.w3.org/2000/svg">
<path d="M134.83 26.705C134.282 26.7781 133.898 27.2812 133.971 27.8286C134.044 28.3761 134.547 28.7605 135.095 28.6873L134.83 26.705ZM178.315 17.5273C178.867 17.509 179.299 17.0467 179.281 16.4947C179.263 15.9427 178.8 15.5101 178.248 15.5284L178.315 17.5273ZM349.518 42.1512C349.72 44.5706 348.858 47.1027 346.87 49.741C344.878 52.3859 341.792 55.0823 337.671 57.7813C329.429 63.1784 317.226 68.4695 301.924 73.3472C271.334 83.0974 228.57 91.1285 180.892 95.1103L181.058 97.1034C228.841 93.1128 271.76 85.0607 302.531 75.2527C317.909 70.3512 330.306 64.9945 338.766 59.4544C342.996 56.6848 346.286 53.8404 348.468 50.9445C350.654 48.042 351.765 45.0334 351.511 41.9847L349.518 42.1512ZM180.892 95.1103C133.214 99.0922 89.7102 98.2657 57.9268 93.7245C42.0269 91.4528 29.1158 88.259 20.093 84.3037C15.5811 82.3258 12.0907 80.1786 9.68702 77.9009C7.28925 75.6288 6.01958 73.2747 5.81752 70.8553L3.82446 71.0217C4.07907 74.0704 5.67358 76.8531 8.31137 79.3526C10.9432 81.8465 14.6598 84.1057 19.2901 86.1355C28.5518 90.1955 41.6662 93.4216 57.6439 95.7044C89.6157 100.272 133.276 101.094 181.058 97.1034L180.892 95.1103ZM135.095 28.6873C181.749 22.4505 235.116 20.578 277.032 22.9944C297.997 24.203 316.05 26.4821 328.953 29.8068C335.41 31.4709 340.517 33.3818 344.042 35.514C347.598 37.6644 349.33 39.9025 349.518 42.1512L351.511 41.9847C351.242 38.7652 348.815 36.0629 345.077 33.8026C341.31 31.5242 335.988 29.5545 329.452 27.8701C316.366 24.498 298.164 22.2093 277.147 20.9977C235.102 18.5738 181.607 20.4517 134.83 26.705L135.095 28.6873ZM5.81752 70.8553C5.65648 68.927 6.71865 66.6216 9.24406 63.9809C11.745 61.3658 15.5352 58.5778 20.4476 55.7116C30.2638 49.9843 44.378 44.0493 61.0951 38.6062C94.523 27.7222 138.189 18.8596 178.315 17.5273L178.248 15.5284C137.909 16.8678 94.0561 25.7709 60.4759 36.7045C43.689 42.1703 29.4268 48.1571 19.4397 53.9842C14.4504 56.8952 10.4821 59.7926 7.79866 62.5986C5.13963 65.379 3.59133 68.2302 3.82446 71.0217L5.81752 70.8553Z" fill="#08A652"/>
</svg>
