<svg width="98" height="68" viewBox="0 0 98 68" fill="none" xmlns="http://www.w3.org/2000/svg">
<path d="M34.2159 19.3489C33.8325 19.5058 33.6488 19.9437 33.8057 20.3271C33.9625 20.7104 34.4004 20.8941 34.7838 20.7373L34.2159 19.3489ZM44.1292 13.7819C44.5372 13.7105 44.8101 13.3218 44.7387 12.9138C44.6673 12.5058 44.2787 12.2329 43.8706 12.3043L44.1292 13.7819ZM90.1592 22.1945C91.6921 27.4975 88.7812 33.755 82.3599 39.6372C75.9771 45.4843 66.3002 50.779 54.8361 54.0927L55.2526 55.5337C66.8902 52.1699 76.7861 46.7773 83.3731 40.7433C89.9217 34.7445 93.3777 27.9273 91.6002 21.7779L90.1592 22.1945ZM54.8361 54.0927C43.372 57.4064 32.3626 58.091 23.8445 56.5511C15.2752 55.0019 9.47467 51.2624 7.94184 45.9594L6.50083 46.3759C8.2783 52.5253 14.8385 56.4473 23.5777 58.0272C32.3682 59.6163 43.6151 58.8976 55.2526 55.5337L54.8361 54.0927ZM34.7838 20.7373C45.6891 16.276 58.8557 13.9173 69.6862 14.0949C75.1038 14.1838 79.8896 14.9067 83.4999 16.2861C87.1235 17.6706 89.4262 19.6584 90.1592 22.1945L91.6002 21.7779C90.6781 18.5878 87.8557 16.3446 84.0353 14.8849C80.2016 13.4201 75.2243 12.6855 69.7108 12.5951C58.679 12.4143 45.3107 14.8102 34.2159 19.3489L34.7838 20.7373ZM7.94184 45.9594C7.30705 43.7632 7.89772 40.8918 9.61235 37.6659C11.3153 34.462 14.0688 31.0223 17.552 27.7583C24.5243 21.2248 34.3055 15.501 44.1292 13.7819L43.8706 12.3043C33.6944 14.0852 23.6577 19.9812 16.5264 26.6637C12.9578 30.0077 10.088 33.5751 8.28783 36.9619C6.49933 40.3267 5.70699 43.6295 6.50083 46.3759L7.94184 45.9594Z" fill="#08A652"/>
</svg>
