<svg width="32" height="32" viewBox="0 0 32 32" fill="none" xmlns="http://www.w3.org/2000/svg">
<path d="M25.3333 14.6667H6.66667C5.19391 14.6667 4 15.8607 4 17.3334V26.6667C4 28.1395 5.19391 29.3334 6.66667 29.3334H25.3333C26.8061 29.3334 28 28.1395 28 26.6667V17.3334C28 15.8607 26.8061 14.6667 25.3333 14.6667Z" stroke="#EAFBFF" stroke-width="1.5"/>
<path d="M9 15V9.66667C9 7.89856 9.70238 6.20286 10.9526 4.95262C12.2029 3.70238 13.8986 3 15.6667 3C17.4348 3 19.1305 3.70238 20.3807 4.95262C21.631 6.20286 22.3333 7.89856 22.3333 9.66667V15" stroke="#EAFBFF" stroke-width="1.5"/>
</svg>
