<svg width="169" height="48" viewBox="0 0 169 48" fill="none" xmlns="http://www.w3.org/2000/svg">
<path d="M0 0H48V48H8C3.58172 48 0 44.4183 0 40V0Z" fill="#08A652"/>
<path d="M14.667 0H48.0003V33.3333H18.667C16.4579 33.3333 14.667 31.5425 14.667 29.3333V0Z" fill="#EBFFFA"/>
<path d="M16.6665 0H47.9998V31.3333H18.6665C17.5619 31.3333 16.6665 30.4379 16.6665 29.3333V0Z" fill="#08A652"/>
<path d="M31.3335 0H48.0002V16.6667H32.3335C31.7812 16.6667 31.3335 16.219 31.3335 15.6667V0Z" fill="#EBFFFA"/>
<path d="M33.333 0H47.9997V14.6667H34.333C33.7807 14.6667 33.333 14.219 33.333 13.6667V0Z" fill="#08A652"/>
<path d="M64.7199 12.7867C63.7777 13.72 62.6311 14.1867 61.2799 14.1867C59.9288 14.1867 58.7822 13.72 57.8399 12.7867C56.9066 11.8445 56.4399 10.6933 56.4399 9.33334C56.4399 7.97334 56.9066 6.82667 57.8399 5.89334C58.7822 4.95112 59.9288 4.48001 61.2799 4.48001C62.6311 4.48001 63.7777 4.95112 64.7199 5.89334C65.6622 6.82667 66.1333 7.97334 66.1333 9.33334C66.1333 10.6933 65.6622 11.8445 64.7199 12.7867ZM59.1333 11.5333C59.7111 12.1022 60.4266 12.3867 61.2799 12.3867C62.1333 12.3867 62.8488 12.1022 63.4266 11.5333C64.0044 10.9556 64.2933 10.2222 64.2933 9.33334C64.2933 8.44445 64.0044 7.71112 63.4266 7.13334C62.8488 6.55556 62.1333 6.26667 61.2799 6.26667C60.4266 6.26667 59.7111 6.55556 59.1333 7.13334C58.5555 7.71112 58.2666 8.44445 58.2666 9.33334C58.2666 10.2222 58.5555 10.9556 59.1333 11.5333Z" fill="black"/>
<path d="M71.7998 8.20001C72.7065 8.20001 73.4487 8.47112 74.0265 9.01334C74.6043 9.54667 74.8932 10.24 74.8932 11.0933C74.8932 11.9556 74.6043 12.6578 74.0265 13.2C73.4487 13.7333 72.7065 14 71.7998 14H68.2265V4.66667H74.0932V6.42667H70.0665V8.20001H71.7998ZM71.7998 12.28C72.1643 12.28 72.4665 12.1778 72.7065 11.9733C72.9465 11.76 73.0665 11.4667 73.0665 11.0933C73.0665 10.72 72.9465 10.4311 72.7065 10.2267C72.4665 10.0222 72.1643 9.92001 71.7998 9.92001H70.0665V12.28H71.7998Z" fill="black"/>
<path d="M77.7826 14V6.42667H75.5426V4.66667H79.6093V7.73334H81.2626C82.1604 7.73334 82.916 8.03556 83.5293 8.64001C84.1426 9.24445 84.4493 9.98667 84.4493 10.8667C84.4493 11.7467 84.1426 12.4889 83.5293 13.0933C82.916 13.6978 82.1604 14 81.2626 14H77.7826ZM79.6093 12.28H81.2626C81.6538 12.28 81.9738 12.1467 82.2227 11.88C82.4804 11.6133 82.6093 11.2756 82.6093 10.8667C82.6093 10.4578 82.4804 10.12 82.2227 9.85334C81.9738 9.58668 81.6538 9.45334 81.2626 9.45334H79.6093V12.28Z" fill="black"/>
<path d="M88.2941 12.24H92.2274V14H86.4541V4.66667H92.1608V6.42667H88.2941V8.41334H91.8274V10.1467H88.2941V12.24Z" fill="black"/>
<path d="M101.498 12.24H102.498V15.7867H100.658V14H95.4978V15.7867H93.6577V12.24H94.5644C95.08 11.52 95.3377 10.4667 95.3377 9.08001V4.66667H101.498V12.24ZM96.5378 12.24H99.6577V6.38667H97.1778V9.10667C97.1778 10.4578 96.9644 11.5022 96.5378 12.24Z" fill="black"/>
<path d="M106.365 12.24H110.299V14H104.525V4.66667H110.232V6.42667H106.365V8.41334H109.899V10.1467H106.365V12.24Z" fill="black"/>
<path d="M117.702 4.66667H119.529V14H117.702V10.1333H114.236V14H112.396V4.66667H114.236V8.37334H117.702V4.66667Z" fill="black"/>
<path d="M123.903 12.24H127.836V14H122.063V4.66667H127.77V6.42667H123.903V8.41334H127.436V10.1467H123.903V12.24Z" fill="black"/>
<path d="M135.24 4.66667H137.067V14H135.24V10.1333H131.773V14H129.933V4.66667H131.773V8.37334H135.24V4.66667Z" fill="black"/>
<path d="M144.907 4.66667H146.734V14H144.907V10.1333H141.44V14H139.6V4.66667H141.44V8.37334H144.907V4.66667Z" fill="black"/>
<path d="M149.268 14V4.66667H151.108V7.73334H152.748C153.645 7.73334 154.401 8.03556 155.014 8.64001C155.628 9.24445 155.934 9.98667 155.934 10.8667C155.934 11.7467 155.628 12.4889 155.014 13.0933C154.401 13.6978 153.645 14 152.748 14H149.268ZM156.788 14V4.66667H158.614V14H156.788ZM151.108 12.28H152.748C153.139 12.28 153.463 12.1467 153.721 11.88C153.979 11.6133 154.108 11.2756 154.108 10.8667C154.108 10.4578 153.979 10.12 153.721 9.85334C153.463 9.58668 153.139 9.45334 152.748 9.45334H151.108V12.28Z" fill="black"/>
<path d="M162.828 3.81334V2.32001H166.695V3.81334H162.828ZM166.548 14V8.30667L162.548 14H161.148V4.66667H162.988V10.3733L166.988 4.66667H168.388V14H166.548Z" fill="black"/>
<path d="M60.3472 19.3334C61.245 19.3334 62.0005 19.6356 62.6139 20.24C63.2272 20.8445 63.5339 21.5867 63.5339 22.4667C63.5339 23.3467 63.2272 24.0889 62.6139 24.6934C62.0005 25.2978 61.245 25.6 60.3472 25.6H58.7072V28.6667H56.8672V19.3334H60.3472ZM60.3472 23.88C60.7383 23.88 61.0627 23.7467 61.3205 23.48C61.5783 23.2045 61.7072 22.8667 61.7072 22.4667C61.7072 22.0578 61.5783 21.72 61.3205 21.4534C61.0627 21.1867 60.7383 21.0534 60.3472 21.0534H58.7072V23.88H60.3472Z" fill="black"/>
<path d="M67.3718 26.9067H71.3051V28.6667H65.5318V19.3334H71.2384V21.0934H67.3718V23.08H70.9051V24.8134H67.3718V26.9067Z" fill="black"/>
<path d="M78.3488 23.84C79.2376 24.3111 79.6821 25.0489 79.6821 26.0534C79.6821 26.8889 79.3665 27.5645 78.7354 28.08C78.1043 28.5956 77.291 28.8534 76.2954 28.8534C74.5621 28.8534 73.4021 28.12 72.8154 26.6534L74.4021 25.76C74.6865 26.6667 75.3176 27.12 76.2954 27.12C76.8021 27.12 77.1888 27.0134 77.4554 26.8C77.7221 26.5867 77.8554 26.2978 77.8554 25.9334C77.8554 25.5689 77.7221 25.28 77.4554 25.0667C77.1976 24.8534 76.8243 24.7467 76.3354 24.7467H75.1754V23.1067H76.0554C76.5176 23.1067 76.8776 23.0089 77.1354 22.8134C77.3932 22.6089 77.5221 22.3334 77.5221 21.9867C77.5221 21.64 77.411 21.3689 77.1888 21.1734C76.9665 20.9689 76.6376 20.8667 76.2021 20.8667C75.4021 20.8667 74.8421 21.2578 74.5221 22.04L72.9621 21.1334C73.5932 19.8089 74.6732 19.1467 76.2021 19.1467C77.1265 19.1467 77.8821 19.3956 78.4688 19.8934C79.0554 20.3911 79.3488 21.0489 79.3488 21.8667C79.3488 22.7023 79.0154 23.36 78.3488 23.84Z" fill="black"/>
<path d="M83.516 26.9067H87.4494V28.6667H81.676V19.3334H87.3827V21.0934H83.516V23.08H87.0494V24.8134H83.516V26.9067Z" fill="black"/>
<path d="M93.0264 19.3334C93.9241 19.3334 94.6797 19.6356 95.293 20.24C95.9064 20.8445 96.213 21.5867 96.213 22.4667C96.213 23.3467 95.9064 24.0889 95.293 24.6934C94.6797 25.2978 93.9241 25.6 93.0264 25.6H91.3864V28.6667H89.5464V19.3334H93.0264ZM93.0264 23.88C93.4175 23.88 93.7419 23.7467 93.9997 23.48C94.2575 23.2045 94.3864 22.8667 94.3864 22.4667C94.3864 22.0578 94.2575 21.72 93.9997 21.4534C93.7419 21.1867 93.4175 21.0534 93.0264 21.0534H91.3864V23.88H93.0264Z" fill="black"/>
<path d="M103.851 23.8267C104.669 24.2978 105.078 25.0089 105.078 25.96C105.078 26.7511 104.798 27.4 104.238 27.9067C103.678 28.4134 102.989 28.6667 102.171 28.6667H98.2109V19.3334H101.891C102.691 19.3334 103.362 19.5822 103.904 20.08C104.455 20.5689 104.731 21.1956 104.731 21.96C104.731 22.7334 104.438 23.3556 103.851 23.8267ZM101.891 21.0534H100.051V23.1067H101.891C102.175 23.1067 102.411 23.0089 102.598 22.8134C102.793 22.6178 102.891 22.3734 102.891 22.08C102.891 21.7867 102.798 21.5423 102.611 21.3467C102.424 21.1511 102.184 21.0534 101.891 21.0534ZM102.171 26.9467C102.482 26.9467 102.74 26.8445 102.944 26.64C103.149 26.4267 103.251 26.16 103.251 25.84C103.251 25.5289 103.149 25.2711 102.944 25.0667C102.74 24.8534 102.482 24.7467 102.171 24.7467H100.051V26.9467H102.171Z" fill="black"/>
<path d="M112.391 19.3334H114.217V28.6667H112.391V24.8H108.924V28.6667H107.084V19.3334H108.924V23.04H112.391V19.3334Z" fill="black"/>
<path d="M116.751 28.6667V19.3334H118.591V22.4H120.231C121.129 22.4 121.884 22.7023 122.498 23.3067C123.111 23.9111 123.418 24.6534 123.418 25.5334C123.418 26.4134 123.111 27.1556 122.498 27.76C121.884 28.3645 121.129 28.6667 120.231 28.6667H116.751ZM124.271 28.6667V19.3334H126.098V28.6667H124.271ZM118.591 26.9467H120.231C120.622 26.9467 120.947 26.8134 121.204 26.5467C121.462 26.28 121.591 25.9423 121.591 25.5334C121.591 25.1245 121.462 24.7867 121.204 24.52C120.947 24.2534 120.622 24.12 120.231 24.12H118.591V26.9467Z" fill="black"/>
<path d="M130.312 18.48V16.9867H134.178V18.48H130.312ZM134.032 28.6667V22.9734L130.032 28.6667H128.632V19.3334H130.472V25.04L134.472 19.3334H135.872V28.6667H134.032Z" fill="black"/>
<path d="M60.4405 37.5333C61.3472 37.5333 62.0894 37.8044 62.6672 38.3467C63.245 38.88 63.5339 39.5733 63.5339 40.4267C63.5339 41.2889 63.245 41.9911 62.6672 42.5333C62.0894 43.0667 61.3472 43.3333 60.4405 43.3333H56.8672V34H62.7339V35.76H58.7072V37.5333H60.4405ZM60.4405 41.6133C60.805 41.6133 61.1072 41.5111 61.3472 41.3067C61.5872 41.0933 61.7072 40.8 61.7072 40.4267C61.7072 40.0533 61.5872 39.7644 61.3472 39.56C61.1072 39.3556 60.805 39.2533 60.4405 39.2533H58.7072V41.6133H60.4405Z" fill="black"/>
<path d="M71.2714 43.3333L70.7114 41.6533H66.9914L66.4314 43.3333H64.4447L67.7114 34H69.9914L73.2714 43.3333H71.2714ZM67.578 39.9333H70.138L68.858 36.12L67.578 39.9333Z" fill="black"/>
<path d="M80.2843 34H82.1109V43.3333H80.2843V39.4667H76.8176V43.3333H74.9776V34H76.8176V37.7067H80.2843V34Z" fill="black"/>
<path d="M91.9381 43.3333H89.8181L86.4848 38.96V43.3333H84.6448V34H86.4848V38.12L89.6848 34H91.8048L88.3515 38.5333L91.9381 43.3333Z" fill="black"/>
</svg>
