<svg width="731" height="508" viewBox="0 0 731 508" fill="none" xmlns="http://www.w3.org/2000/svg">
<mask id="path-1-inside-1" fill="white">
<path fill-rule="evenodd" clip-rule="evenodd" d="M274.879 266.989C301.321 238.632 317.5 200.581 317.5 158.75C317.5 71.0748 246.425 0 158.75 0C71.0748 0 0 71.0748 0 158.75C0 234.469 53.0117 297.806 123.946 313.673L47.6251 452.438L134.938 508L274.879 266.989Z"/>
</mask>
<path d="M274.879 266.989L273.417 265.625L273.263 265.79L273.15 265.985L274.879 266.989ZM123.946 313.673L125.698 314.637L126.982 312.303L124.382 311.721L123.946 313.673ZM47.6251 452.438L45.8726 451.474L44.9685 453.118L46.5513 454.125L47.6251 452.438ZM134.938 508L133.864 509.687L135.621 510.806L136.667 509.004L134.938 508ZM315.5 158.75C315.5 200.055 299.527 237.624 273.417 265.625L276.342 268.353C303.115 239.641 319.5 201.107 319.5 158.75H315.5ZM158.75 2C245.321 2 315.5 72.1794 315.5 158.75H319.5C319.5 69.9702 247.53 -2 158.75 -2V2ZM2 158.75C2 72.1794 72.1794 2 158.75 2V-2C69.9702 -2 -2 69.9702 -2 158.75H2ZM124.382 311.721C54.3423 296.055 2 233.513 2 158.75H-2C-2 235.425 51.6811 299.558 123.509 315.625L124.382 311.721ZM122.193 312.709L45.8726 451.474L49.3775 453.401L125.698 314.637L122.193 312.709ZM46.5513 454.125L133.864 509.687L136.011 506.313L48.6988 450.75L46.5513 454.125ZM136.667 509.004L276.609 267.993L273.15 265.985L133.208 506.996L136.667 509.004Z" fill="url(#paint0_linear)" mask="url(#path-1-inside-1)"/>
<mask id="path-3-inside-2" fill="white">
<path fill-rule="evenodd" clip-rule="evenodd" d="M687.63 266.989C714.071 238.632 730.25 200.58 730.25 158.75C730.25 71.0748 659.175 0 571.5 0C483.825 0 412.75 71.0748 412.75 158.75C412.75 234.469 465.762 297.806 536.696 313.673L460.375 452.438L547.688 508L687.63 266.989Z"/>
</mask>
<path d="M687.63 266.989L686.167 265.625L686.013 265.79L685.9 265.985L687.63 266.989ZM536.696 313.673L538.448 314.637L539.732 312.303L537.132 311.721L536.696 313.673ZM460.375 452.438L458.623 451.474L457.719 453.118L459.301 454.125L460.375 452.438ZM547.688 508L546.614 509.687L548.371 510.806L549.417 509.004L547.688 508ZM728.25 158.75C728.25 200.054 712.277 237.624 686.167 265.625L689.092 268.353C715.865 239.641 732.25 201.106 732.25 158.75H728.25ZM571.5 2C658.071 2 728.25 72.1794 728.25 158.75H732.25C732.25 69.9702 660.28 -2 571.5 -2V2ZM414.75 158.75C414.75 72.1794 484.929 2 571.5 2V-2C482.72 -2 410.75 69.9702 410.75 158.75H414.75ZM537.132 311.721C467.092 296.055 414.75 233.513 414.75 158.75H410.75C410.75 235.425 464.431 299.558 536.259 315.625L537.132 311.721ZM534.943 312.709L458.623 451.474L462.128 453.401L538.448 314.637L534.943 312.709ZM459.301 454.125L546.614 509.687L548.761 506.313L461.449 450.75L459.301 454.125ZM549.417 509.004L689.359 267.993L685.9 265.985L545.958 506.996L549.417 509.004Z" fill="url(#paint1_linear)" mask="url(#path-3-inside-2)"/>
<defs>
<linearGradient id="paint0_linear" x1="158.75" y1="0" x2="158.75" y2="508" gradientUnits="userSpaceOnUse">
<stop stop-color="#EAFBFF" stop-opacity="0.6"/>
<stop offset="1" stop-color="#EAFBFF" stop-opacity="0"/>
</linearGradient>
<linearGradient id="paint1_linear" x1="571.5" y1="0" x2="571.5" y2="508" gradientUnits="userSpaceOnUse">
<stop stop-color="#EAFBFF" stop-opacity="0.6"/>
<stop offset="1" stop-color="#EAFBFF" stop-opacity="0"/>
</linearGradient>
</defs>
</svg>
