<svg width="32" height="32" viewBox="0 0 32 32" fill="none" xmlns="http://www.w3.org/2000/svg">
<path d="M16.0001 29.3337C23.3639 29.3337 29.3334 23.3641 29.3334 16.0003C29.3334 8.63653 23.3639 2.66699 16.0001 2.66699C8.63629 2.66699 2.66675 8.63653 2.66675 16.0003C2.66675 23.3641 8.63629 29.3337 16.0001 29.3337Z" stroke="#08A652" stroke-width="1.5"/>
<path d="M12.1199 11.9998C12.4333 11.1087 13.0521 10.3573 13.8665 9.87863C14.6809 9.39999 15.6384 9.22503 16.5694 9.38473C17.5005 9.54443 18.345 10.0285 18.9533 10.7512C19.5617 11.4738 19.8946 12.3885 19.8932 13.3331C19.8932 15.9998 15.8932 17.3331 15.8932 17.3331" stroke="#08A652" stroke-width="1.5"/>
<path d="M16 22.667H16.0133" stroke="#08A652" stroke-width="2" stroke-linecap="round" stroke-linejoin="round"/>
</svg>
